<svg xmlns="http://www.w3.org/2000/svg" xmlns:xlink="http://www.w3.org/1999/xlink" width="500" zoomAndPan="magnify" viewBox="0 0 375 576" height="768" preserveAspectRatio="xMidYMid meet" version="1.0"><defs><g/></defs><g fill="#ff3660" fill-opacity="1"><g transform="translate(179.011336, 379.367786)"><g><path d="M 115.25 -141.734375 C 136.4375 -141.734375 154.425781 -134.335938 169.21875 -119.546875 C 184.007812 -104.753906 191.40625 -86.765625 191.40625 -65.578125 C 191.40625 -44.816406 184.007812 -27.039062 169.21875 -12.25 C 154.425781 2.539062 136.4375 9.9375 115.25 9.9375 C 94.488281 9.9375 76.710938 2.539062 61.921875 -12.25 C 47.128906 -27.039062 39.734375 -44.816406 39.734375 -65.578125 C 39.734375 -86.765625 47.128906 -104.753906 61.921875 -119.546875 C 76.710938 -134.335938 94.488281 -141.734375 115.25 -141.734375 Z M 115.25 -141.734375 "/></g></g></g><g fill="#e4e4e4" fill-opacity="1"><g transform="translate(-13.959205, 519.978348)"><g><path d="M 133.191406 50.925781 L 156.371094 50.925781 C 165.839844 50.925781 175.957031 49.621094 184.445312 49.621094 L 184.445312 -3.917969 C 175.957031 -1.957031 166.492188 -0.652344 160.617188 -0.652344 C 135.152344 -0.652344 127.644531 -19.261719 127.644531 -42.765625 L 127.644531 -160.617188 C 127.644531 -185.097656 109.035156 -205.339844 81.613281 -218.070312 C 107.078125 -232.109375 127.644531 -251.371094 127.644531 -287.605469 L 127.644531 -454.097656 C 127.644531 -461.933594 131.5625 -465.195312 151.148438 -465.195312 C 155.71875 -465.195312 173.019531 -463.238281 184.445312 -460.625 L 184.445312 -514.164062 C 175.957031 -514.816406 166.492188 -515.46875 157.023438 -515.46875 L 140.375 -515.46875 C 83.570312 -515.46875 60.066406 -484.785156 60.066406 -431.246094 L 60.066406 -292.175781 C 60.066406 -264.753906 45.378906 -255.941406 17.300781 -246.144531 L 17.300781 -193.914062 C 36.890625 -186.40625 60.066406 -179.222656 60.066406 -158.984375 L 60.066406 -41.460938 C 60.066406 -15.34375 63.660156 3.917969 72.144531 16.648438 C 84.878906 35.582031 102.832031 50.925781 133.191406 50.925781 Z M 133.191406 50.925781 "/></g></g></g></svg>