<svg xmlns="http://www.w3.org/2000/svg" xmlns:xlink="http://www.w3.org/1999/xlink" width="1366" zoomAndPan="magnify" viewBox="0 0 1024.5 510.750002" height="681" preserveAspectRatio="xMidYMid meet" version="1.0"><defs><g/></defs><g fill="#ff3660" fill-opacity="1"><g transform="translate(946.263191, 240.956589)"><g><path d="M 44.21875 -54.375 C 52.34375 -54.375 59.242188 -51.535156 64.921875 -45.859375 C 70.597656 -40.191406 73.4375 -33.289062 73.4375 -25.15625 C 73.4375 -17.195312 70.597656 -10.378906 64.921875 -4.703125 C 59.242188 0.972656 52.34375 3.8125 44.21875 3.8125 C 36.25 3.8125 29.425781 0.972656 23.75 -4.703125 C 18.082031 -10.378906 15.25 -17.195312 15.25 -25.15625 C 15.25 -33.289062 18.082031 -40.191406 23.75 -45.859375 C 29.425781 -51.535156 36.25 -54.375 44.21875 -54.375 Z M 44.21875 -54.375 "/></g></g></g><g fill="#e4e4e4" fill-opacity="1"><g transform="translate(186.73097, 218.890921)"><g><path d="M 138 -40.796875 L 49.859375 -40.796875 L 32.484375 0 L -1.265625 0 L 78.0625 -176.28125 L 110.296875 -176.28125 L 189.875 0 L 155.625 0 Z M 127.171875 -66.484375 L 93.9375 -143.546875 L 60.9375 -66.484375 Z M 127.171875 -66.484375 "/></g></g></g><g fill="#e4e4e4" fill-opacity="1"><g transform="translate(366.262436, 218.890921)"><g><path d="M 96.953125 -135.984375 C 113.910156 -135.984375 127.507812 -131.03125 137.75 -121.125 C 147.988281 -111.21875 153.109375 -96.53125 153.109375 -77.0625 L 153.109375 0 L 121.640625 0 L 121.640625 -73.03125 C 121.640625 -84.78125 118.867188 -93.632812 113.328125 -99.59375 C 107.785156 -105.550781 99.894531 -108.53125 89.65625 -108.53125 C 78.070312 -108.53125 68.921875 -105.046875 62.203125 -98.078125 C 55.484375 -91.117188 52.125 -81.09375 52.125 -68 L 52.125 0 L 20.65625 0 L 20.65625 -134.46875 L 50.625 -134.46875 L 50.625 -117.09375 C 55.820312 -123.3125 62.363281 -128.015625 70.25 -131.203125 C 78.144531 -134.390625 87.046875 -135.984375 96.953125 -135.984375 Z M 96.953125 -135.984375 "/></g></g></g><g fill="#e4e4e4" fill-opacity="1"><g transform="translate(529.678674, 218.890921)"><g><path d="M 72.015625 -135.984375 C 91.828125 -135.984375 106.976562 -131.238281 117.46875 -121.75 C 127.96875 -112.269531 133.21875 -97.960938 133.21875 -78.828125 L 133.21875 0 L 103.5 0 L 103.5 -16.375 C 99.632812 -10.5 94.132812 -6.003906 87 -2.890625 C 79.863281 0.210938 71.257812 1.765625 61.1875 1.765625 C 51.113281 1.765625 42.300781 0.046875 34.75 -3.390625 C 27.195312 -6.835938 21.363281 -11.625 17.25 -17.75 C 13.132812 -23.882812 11.078125 -30.8125 11.078125 -38.53125 C 11.078125 -50.613281 15.566406 -60.304688 24.546875 -67.609375 C 33.535156 -74.921875 47.679688 -78.578125 66.984375 -78.578125 L 101.734375 -78.578125 L 101.734375 -80.578125 C 101.734375 -89.984375 98.921875 -97.203125 93.296875 -102.234375 C 87.671875 -107.273438 79.320312 -109.796875 68.25 -109.796875 C 60.6875 -109.796875 53.253906 -108.617188 45.953125 -106.265625 C 38.648438 -103.921875 32.484375 -100.648438 27.453125 -96.453125 L 15.109375 -119.359375 C 22.160156 -124.734375 30.640625 -128.847656 40.546875 -131.703125 C 50.453125 -134.554688 60.941406 -135.984375 72.015625 -135.984375 Z M 67.734375 -21.15625 C 75.628906 -21.15625 82.640625 -22.957031 88.765625 -26.5625 C 94.898438 -30.175781 99.222656 -35.34375 101.734375 -42.0625 L 101.734375 -57.671875 L 69.25 -57.671875 C 51.125 -57.671875 42.0625 -51.707031 42.0625 -39.78125 C 42.0625 -34.082031 44.328125 -29.550781 48.859375 -26.1875 C 53.390625 -22.832031 59.679688 -21.15625 67.734375 -21.15625 Z M 67.734375 -21.15625 "/></g></g></g><g fill="#e4e4e4" fill-opacity="1"><g transform="translate(673.454597, 218.890921)"><g><path d="M 96.953125 -135.984375 C 113.910156 -135.984375 127.507812 -131.03125 137.75 -121.125 C 147.988281 -111.21875 153.109375 -96.53125 153.109375 -77.0625 L 153.109375 0 L 121.640625 0 L 121.640625 -73.03125 C 121.640625 -84.78125 118.867188 -93.632812 113.328125 -99.59375 C 107.785156 -105.550781 99.894531 -108.53125 89.65625 -108.53125 C 78.070312 -108.53125 68.921875 -105.046875 62.203125 -98.078125 C 55.484375 -91.117188 52.125 -81.09375 52.125 -68 L 52.125 0 L 20.65625 0 L 20.65625 -186.859375 L 52.125 -186.859375 L 52.125 -118.859375 C 57.332031 -124.398438 63.753906 -128.640625 71.390625 -131.578125 C 79.023438 -134.515625 87.546875 -135.984375 96.953125 -135.984375 Z M 96.953125 -135.984375 "/></g></g></g><g fill="#e4e4e4" fill-opacity="1"><g transform="translate(836.870847, 218.890921)"><g><path d="M 20.65625 -134.46875 L 52.125 -134.46875 L 52.125 0 L 20.65625 0 Z M 49.359375 -187.359375 L 86.375 -187.359375 L 42.5625 -152.859375 L 15.359375 -152.859375 Z M 49.359375 -187.359375 "/></g></g></g><g fill="#e4e4e4" fill-opacity="1"><g transform="translate(900.623833, 218.890921)"><g/></g></g><g fill="#e4e4e4" fill-opacity="1"><g transform="translate(-13.998227, 382.537224)"><g><path d="M 92.074219 27.347656 L 108.480469 27.347656 C 112.128906 27.347656 116.003906 27.347656 119.875 27.121094 L 119.875 6.609375 C 116.6875 7.519531 113.953125 8.203125 110.53125 8.203125 C 90.476562 8.203125 80.222656 -3.191406 80.222656 -25.753906 L 80.222656 -108.710938 C 80.222656 -127.398438 64.953125 -138.109375 39.425781 -146.996094 C 67.230469 -158.164062 80.222656 -171.382812 80.222656 -193.71875 L 80.222656 -309.035156 C 80.222656 -318.835938 88.882812 -323.394531 105.0625 -323.394531 C 110.304688 -323.394531 114.179688 -323.164062 119.875 -322.027344 L 119.875 -342.539062 C 116.003906 -342.992188 112.582031 -342.765625 108.9375 -342.765625 L 96.859375 -342.765625 C 61.304688 -342.765625 49 -324.53125 49 -293.992188 L 49 -196.453125 C 49 -178.21875 39.199219 -166.824219 19.144531 -161.582031 L 19.144531 -135.375 C 32.816406 -130.589844 49 -122.382812 49 -107.796875 L 49 -24.15625 C 49 -8.886719 51.507812 1.59375 56.746094 8.660156 C 64.496094 18.6875 74.753906 27.347656 92.074219 27.347656 Z M 92.074219 27.347656 "/></g></g></g><g fill="#ff3660" fill-opacity="1"><g transform="translate(163.118994, 449.615792)"><g><path d="M 90.203125 -165.28125 C 104.523438 -165.28125 117 -162.921875 127.625 -158.203125 C 138.25 -153.484375 146.394531 -146.710938 152.0625 -137.890625 C 157.726562 -129.078125 160.5625 -118.613281 160.5625 -106.5 C 160.5625 -94.53125 157.726562 -84.097656 152.0625 -75.203125 C 146.394531 -66.304688 138.25 -59.5 127.625 -54.78125 C 117 -50.0625 104.523438 -47.703125 90.203125 -47.703125 L 52.890625 -47.703125 L 52.890625 0 L 22.203125 0 L 22.203125 -165.28125 Z M 88.78125 -73.671875 C 102.164062 -73.671875 112.316406 -76.503906 119.234375 -82.171875 C 126.160156 -87.835938 129.625 -95.945312 129.625 -106.5 C 129.625 -117.039062 126.160156 -125.144531 119.234375 -130.8125 C 112.316406 -136.476562 102.164062 -139.3125 88.78125 -139.3125 L 52.890625 -139.3125 L 52.890625 -73.671875 Z M 88.78125 -73.671875 "/></g></g></g><g fill="#ff3660" fill-opacity="1"><g transform="translate(326.041387, 449.615792)"><g><path d="M 137.890625 -62.34375 C 137.890625 -60.289062 137.734375 -57.375 137.421875 -53.59375 L 38.484375 -53.59375 C 40.210938 -44.3125 44.738281 -36.953125 52.0625 -31.515625 C 59.382812 -26.085938 68.476562 -23.375 79.34375 -23.375 C 93.1875 -23.375 104.597656 -27.941406 113.578125 -37.078125 L 129.390625 -18.890625 C 123.722656 -12.117188 116.5625 -7 107.90625 -3.53125 C 99.25 -0.0703125 89.488281 1.65625 78.625 1.65625 C 64.769531 1.65625 52.566406 -1.097656 42.015625 -6.609375 C 31.472656 -12.117188 23.328125 -19.789062 17.578125 -29.625 C 11.835938 -39.46875 8.96875 -50.609375 8.96875 -63.046875 C 8.96875 -75.328125 11.757812 -86.382812 17.34375 -96.21875 C 22.9375 -106.0625 30.691406 -113.734375 40.609375 -119.234375 C 50.523438 -124.742188 61.703125 -127.5 74.140625 -127.5 C 86.421875 -127.5 97.398438 -124.785156 107.078125 -119.359375 C 116.765625 -113.929688 124.320312 -106.296875 129.75 -96.453125 C 135.175781 -86.617188 137.890625 -75.25 137.890625 -62.34375 Z M 74.140625 -103.890625 C 64.691406 -103.890625 56.703125 -101.09375 50.171875 -95.5 C 43.640625 -89.914062 39.664062 -82.484375 38.25 -73.203125 L 109.796875 -73.203125 C 108.535156 -82.328125 104.675781 -89.722656 98.21875 -95.390625 C 91.769531 -101.054688 83.742188 -103.890625 74.140625 -103.890625 Z M 74.140625 -103.890625 "/></g></g></g><g fill="#ff3660" fill-opacity="1"><g transform="translate(464.40732, 449.615792)"><g><path d="M 47.46875 -107.671875 C 55.96875 -120.890625 70.921875 -127.5 92.328125 -127.5 L 92.328125 -99.40625 C 89.804688 -99.875 87.523438 -100.109375 85.484375 -100.109375 C 73.984375 -100.109375 65.003906 -96.765625 58.546875 -90.078125 C 52.097656 -83.390625 48.875 -73.75 48.875 -61.15625 L 48.875 0 L 19.359375 0 L 19.359375 -126.09375 L 47.46875 -126.09375 Z M 47.46875 -107.671875 "/></g></g></g><g fill="#ff3660" fill-opacity="1"><g transform="translate(555.077184, 449.615792)"><g><path d="M 67.53125 -127.5 C 86.101562 -127.5 100.304688 -123.050781 110.140625 -114.15625 C 119.984375 -105.269531 124.90625 -91.851562 124.90625 -73.90625 L 124.90625 0 L 97.046875 0 L 97.046875 -15.34375 C 93.421875 -9.832031 88.265625 -5.617188 81.578125 -2.703125 C 74.890625 0.203125 66.820312 1.65625 57.375 1.65625 C 47.925781 1.65625 39.660156 0.0390625 32.578125 -3.1875 C 25.492188 -6.414062 20.023438 -10.898438 16.171875 -16.640625 C 12.316406 -22.390625 10.390625 -28.882812 10.390625 -36.125 C 10.390625 -47.457031 14.597656 -56.546875 23.015625 -63.390625 C 31.441406 -70.242188 44.707031 -73.671875 62.8125 -73.671875 L 95.390625 -73.671875 L 95.390625 -75.5625 C 95.390625 -84.375 92.753906 -91.140625 87.484375 -95.859375 C 82.210938 -100.585938 74.378906 -102.953125 63.984375 -102.953125 C 56.898438 -102.953125 49.9375 -101.847656 43.09375 -99.640625 C 36.25 -97.441406 30.460938 -94.375 25.734375 -90.4375 L 14.171875 -111.921875 C 20.773438 -116.960938 28.722656 -120.816406 38.015625 -123.484375 C 47.304688 -126.160156 57.144531 -127.5 67.53125 -127.5 Z M 63.515625 -19.828125 C 70.910156 -19.828125 77.484375 -21.519531 83.234375 -24.90625 C 88.984375 -28.289062 93.035156 -33.132812 95.390625 -39.4375 L 95.390625 -54.078125 L 64.9375 -54.078125 C 47.9375 -54.078125 39.4375 -48.488281 39.4375 -37.3125 C 39.4375 -31.957031 41.5625 -27.703125 45.8125 -24.546875 C 50.0625 -21.398438 55.960938 -19.828125 63.515625 -19.828125 Z M 63.515625 -19.828125 "/></g></g></g><g fill="#ff3660" fill-opacity="1"><g transform="translate(689.901276, 449.615792)"><g><path d="M 19.359375 -175.203125 L 48.875 -175.203125 L 48.875 0 L 19.359375 0 Z M 19.359375 -175.203125 "/></g></g></g><g fill="#ff3660" fill-opacity="1"><g transform="translate(749.639507, 449.615792)"><g><path d="M 95.15625 -6.84375 C 91.695312 -4.007812 87.488281 -1.882812 82.53125 -0.46875 C 77.570312 0.945312 72.335938 1.65625 66.828125 1.65625 C 52.972656 1.65625 42.265625 -1.960938 34.703125 -9.203125 C 27.148438 -16.453125 23.375 -27 23.375 -40.84375 L 23.375 -101.53125 L 2.59375 -101.53125 L 2.59375 -125.140625 L 23.375 -125.140625 L 23.375 -153.953125 L 52.890625 -153.953125 L 52.890625 -125.140625 L 86.65625 -125.140625 L 86.65625 -101.53125 L 52.890625 -101.53125 L 52.890625 -41.5625 C 52.890625 -35.414062 54.382812 -30.726562 57.375 -27.5 C 60.363281 -24.28125 64.691406 -22.671875 70.359375 -22.671875 C 76.972656 -22.671875 82.484375 -24.398438 86.890625 -27.859375 Z M 95.15625 -6.84375 "/></g></g></g><g fill="#ff3660" fill-opacity="1"><g transform="translate(841.253848, 449.615792)"><g><path d="M 67.53125 -127.5 C 86.101562 -127.5 100.304688 -123.050781 110.140625 -114.15625 C 119.984375 -105.269531 124.90625 -91.851562 124.90625 -73.90625 L 124.90625 0 L 97.046875 0 L 97.046875 -15.34375 C 93.421875 -9.832031 88.265625 -5.617188 81.578125 -2.703125 C 74.890625 0.203125 66.820312 1.65625 57.375 1.65625 C 47.925781 1.65625 39.660156 0.0390625 32.578125 -3.1875 C 25.492188 -6.414062 20.023438 -10.898438 16.171875 -16.640625 C 12.316406 -22.390625 10.390625 -28.882812 10.390625 -36.125 C 10.390625 -47.457031 14.597656 -56.546875 23.015625 -63.390625 C 31.441406 -70.242188 44.707031 -73.671875 62.8125 -73.671875 L 95.390625 -73.671875 L 95.390625 -75.5625 C 95.390625 -84.375 92.753906 -91.140625 87.484375 -95.859375 C 82.210938 -100.585938 74.378906 -102.953125 63.984375 -102.953125 C 56.898438 -102.953125 49.9375 -101.847656 43.09375 -99.640625 C 36.25 -97.441406 30.460938 -94.375 25.734375 -90.4375 L 14.171875 -111.921875 C 20.773438 -116.960938 28.722656 -120.816406 38.015625 -123.484375 C 47.304688 -126.160156 57.144531 -127.5 67.53125 -127.5 Z M 63.515625 -19.828125 C 70.910156 -19.828125 77.484375 -21.519531 83.234375 -24.90625 C 88.984375 -28.289062 93.035156 -33.132812 95.390625 -39.4375 L 95.390625 -54.078125 L 64.9375 -54.078125 C 47.9375 -54.078125 39.4375 -48.488281 39.4375 -37.3125 C 39.4375 -31.957031 41.5625 -27.703125 45.8125 -24.546875 C 50.0625 -21.398438 55.960938 -19.828125 63.515625 -19.828125 Z M 63.515625 -19.828125 "/></g></g></g></svg>